
nColumns=19
nRows=56
DataType=double
version=3
OpenSimVersion=4.4-2022-10-11-798caa840
endheader
time	ground_force_calcn_r_vx	ground_force_calcn_r_vy	ground_force_calcn_r_vz	ground_force_calcn_r_px	ground_force_calcn_r_py	ground_force_calcn_r_pz	ground_force_calcn_r_mx	ground_force_calcn_r_my	ground_force_calcn_r_mz	ground_force_calcn_l_vx	ground_force_calcn_l_vy	ground_force_calcn_l_vz	ground_force_calcn_l_px	ground_force_calcn_l_py	ground_force_calcn_l_pz	ground_force_calcn_l_mx	ground_force_calcn_l_my	ground_force_calcn_l_mz
6.74	-2.24531	518.638	-32.961	-0.223178	0	-0.432495	0.0534528	-12.3469	0.784683	25.542	481.586	25.9332	-0.244707	0	-0.878107	0.566183	10.6752	0.574854
6.75	-1.71997	512.948	-33.3883	-0.223975	0	-0.432737	0.0404212	-12.0549	0.784664	26.0883	475.754	26.5714	-0.245489	0	-0.877841	0.567644	10.3517	0.578156
6.76	-1.27097	507.55	-33.5873	-0.224685	0	-0.43298	0.0295047	-11.7824	0.779706	26.411	470.491	27.1545	-0.246154	0	-0.877591	0.563548	10.0392	0.579412
6.77	-0.915616	502.436	-33.5888	-0.225302	0	-0.433218	0.0210093	-11.5286	0.770711	26.4993	465.728	27.6885	-0.246698	0	-0.877359	0.554022	9.737	0.578886
6.78	-0.665143	497.598	-33.4267	-0.225818	0	-0.433447	0.0150951	-11.2928	0.758605	26.3522	461.406	28.1759	-0.24712	0	-0.877148	0.53945	9.44533	0.576783
6.79	-0.524069	493.033	-33.1365	-0.226231	0	-0.433661	0.0117715	-11.0744	0.744305	25.9772	457.478	28.6172	-0.247421	0	-0.876955	0.520392	9.164490000000001	0.573278
6.8	-0.489642	488.752	-32.7532	-0.226549	0	-0.433859	0.0108932	-10.8734	0.728668	25.387	453.903	29.013	-0.247609	0	-0.876777	0.497496	8.8949	0.568553
6.81	-0.553345	484.776	-32.3114	-0.226772	0	-0.434035	0.0122016	-10.6896	0.712488	24.5973	450.644	29.3667	-0.247691	0	-0.876615	0.471425	8.63691	0.562835
6.82	-0.705403	481.142	-31.8457	-0.226907	0	-0.434188	0.0154278	-10.523	0.696495	23.6264	447.666	29.6854	-0.247674	0	-0.876466	0.442837	8.39073	0.556403
6.83	-0.94029	477.886	-31.3904	-0.226954	0	-0.434312	0.0204104	-10.3732	0.681375	22.4961	444.943	29.9783	-0.247563	0	-0.876328	0.412384	8.15643	0.549544
6.84	-1.25741	475.033	-30.9782	-0.226914	0	-0.434404	0.0271046	-10.2398	0.667764	21.2327	442.46	30.254	-0.247373	0	-0.876201	0.380735	7.93398	0.542501
6.85	-1.65665	472.586	-30.6375	-0.226786	0	-0.43446	0.035483	-10.1221	0.656212	19.8674	440.202	30.5188	-0.247112	0	-0.876081	0.348572	7.72329	0.535449
6.86	-2.13489	470.53	-30.3915	-0.226574	0	-0.434479	0.0454611	-10.0196	0.647168	18.4349	438.157	30.7763	-0.246795	0	-0.875969	0.316571	7.5242	0.5285029999999999
6.87	-2.68399	468.842	-30.2573	-0.226294	0	-0.434462	0.0568567	-9.931800000000001	0.640961	16.9704	436.306	31.0286	-0.246435	0	-0.875861	0.285358	7.33649	0.521746
6.88	-3.28863	467.499	-30.2446	-0.225964	0	-0.434415	0.0693472	-9.858129999999999	0.6377660000000001	15.5069	434.629	31.2763	-0.246049	0	-0.875757	0.255461	7.16009	0.515247
6.89	-3.92564	466.471	-30.3552	-0.225614	0	-0.434348	0.0824564	-9.79804	0.637598	14.0727	433.108	31.5197	-0.245648	0	-0.875655	0.227282	6.99496	0.509063
6.9	-4.56605	465.735	-30.584	-0.22528	0	-0.434272	0.0955963	-9.750780000000001	0.640316	12.6908	431.732	31.7594	-0.245248	0	-0.8755540000000001	0.201097	6.84118	0.503256
6.91	-5.18052	465.268	-30.9195	-0.224992	0	-0.4342	0.108175	-9.715310000000001	0.645633	11.3784	430.498	31.9963	-0.244858	0	-0.875453	0.177057	6.69889	0.497887
6.92	-5.747	465.051	-31.3463	-0.224777	0	-0.434142	0.119749	-9.690160000000001	0.653156	10.1477	429.413	32.2321	-0.24449	0	-0.875352	0.155216	6.56817	0.493012
6.93	-6.25744	465.062	-31.847	-0.224647	0	-0.434108	0.130156	-9.67337	0.662423	9.006169999999999	428.489	32.4695	-0.24415	0	-0.875248	0.135547	6.44894	0.48868
6.94	-6.71898	465.273	-32.4046	-0.224598	0	-0.434102	0.139537	-9.66263	0.672967	7.95557	427.744	32.7115	-0.243843	0	-0.875145	0.117934	6.34092	0.484919
6.95	-7.14732	465.646	-33.0028	-0.22462	0	-0.434127	0.148202	-9.65536	0.684325	6.99065	427.193	32.9613	-0.243571	0	-0.87504	0.102172	6.24367	0.481748
6.96	-7.55783	466.137	-33.6248	-0.224693	0	-0.434183	0.156444	-9.648870000000001	0.696021	6.10225	426.842	33.2237	-0.243335	0	-0.874937	0.0880185	6.15673	0.479217
6.97	-7.96107	466.696	-34.2521	-0.224801	0	-0.434268	0.164453	-9.64058	0.707549	5.2819	426.689	33.5053	-0.243137	0	-0.8748359999999999	0.0752587	6.07964	0.477397
6.98	-8.363519999999999	467.271	-34.866	-0.224929	0	-0.434382	0.172332	-9.62823	0.718421	4.525	426.724	33.812	-0.242977	0	-0.87474	0.0637494	6.0118	0.476352
6.99	-8.769080000000001	467.816	-35.4512	-0.225066	0	-0.434522	0.180138	-9.61007	0.728254	3.83158	426.928	34.148	-0.242854	0	-0.874654	0.0534214	5.95239	0.476104
7	-9.17905	468.293	-35.9987	-0.225208	0	-0.434685	0.187872	-9.584770000000001	0.736803	3.20417	427.273	34.5135	-0.242764	0	-0.874578	0.044248	5.90042	0.476613
7.01	-9.592090000000001	468.676	-36.5064	-0.225358	0	-0.434868	0.19548	-9.551310000000001	0.7439750000000001	2.6434	427.72	34.9051	-0.242702	0	-0.874517	0.0361837	5.85477	0.477792
7.02	-10.0041	468.953	-36.9782	-0.225523	0	-0.435068	0.20285	-9.50883	0.749798	2.1455	428.215	35.3183	-0.242655	0	-0.874472	0.0291321	5.8144	0.479559
7.03	-10.4088	469.117	-37.4206	-0.225713	0	-0.435284	0.209826	-9.456720000000001	0.754344	1.70428	428.699	35.7495	-0.24261	0	-0.874447	0.0229712	5.77823	0.48185
7.04	-10.8004	469.174	-37.8388	-0.225936	0	-0.435514	0.216266	-9.39467	0.757678	1.31485	429.121	36.1981	-0.242554	0	-0.874444	0.0176028	5.74492	0.484608
7.05	-11.1759	469.136	-38.237	-0.226198	0	-0.435755	0.22209	-9.32273	0.759852	0.975843	429.442	36.6673	-0.242477	0	-0.8744690000000001	0.0129818	5.71296	0.487792
7.06	-11.5348	469.021	-38.6181	-0.226504	0	-0.436004	0.227275	-9.24128	0.7609050000000001	0.688798	429.642	37.1637	-0.242366	0	-0.8745230000000001	0.009106990000000001	5.68055	0.491364
7.07	-11.8781	468.858	-38.984	-0.226851	0	-0.436261	0.231832	-9.15099	0.7608740000000001	0.456168	429.708	37.6967	-0.242219	0	-0.874607	0.00599321	5.64558	0.495266
7.08	-12.2072	468.678	-39.3351	-0.227237	0	-0.436522	0.235787	-9.05274	0.759775	0.278834	429.632	38.2772	-0.242026	0	-0.874727	0.00363811	5.60565	0.499425
7.09	-12.5227	468.504	-39.6686	-0.227658	0	-0.436787	0.239158	-8.94749	0.757591	0.156007	429.406	38.9169	-0.241789	0	-0.874882	0.00201937	5.55827	0.503744
7.1	-12.8243	468.349	-39.9786	-0.228106	0	-0.437051	0.241952	-8.836220000000001	0.754266	0.08743529999999999	429.02	39.6252	-0.241509	0	-0.875074	0.00112113	5.50105	0.508087
7.11	-13.1101	468.212	-40.2568	-0.228575	0	-0.437314	0.244163	-8.720000000000001	0.749746	0.0748726	428.461	40.4059	-0.24119	0	-0.8753	0.000949201	5.43184	0.512248
7.12	-13.3744	468.091	-40.4972	-0.229062	0	-0.437572	0.245719	-8.599909999999999	0.744028	0.122402	427.71	41.2552	-0.240845	0	-0.875556	0.00153078	5.34902	0.515946
7.13	-13.6052	467.991	-40.6991	-0.229561	0	-0.437823	0.246441	-8.477040000000001	0.73721	0.235222	426.745	42.162	-0.240484	0	-0.875837	0.00289472	5.25167	0.51886
7.14	-13.7842	467.929	-40.8698	-0.230073	0	-0.438064	0.246048	-8.352539999999999	0.729527	0.417073	425.546	43.1092	-0.240122	0	-0.876135	0.00503732	5.13965	0.520663
7.15	-13.8901	467.925	-41.026	-0.230599	0	-0.438293	0.24423	-8.227539999999999	0.721361	0.66673	424.096	44.0755	-0.239769	0	-0.876444	0.007881869999999999	5.01352	0.521046
7.16	-13.9035	467.996	-41.1915	-0.231137	0	-0.438505	0.24073	-8.10304	0.713203	0.97564	422.382	45.0384	-0.239432	0	-0.876756	0.0112592	4.87441	0.519756
7.17	-13.8091	468.14	-41.3929	-0.231688	0	-0.438693	0.235388	-7.97982	0.705574	1.32849	420.396	45.9762	-0.239116	0	-0.877067	0.014928	4.72393	0.516629
7.18	-13.5992	468.333	-41.6558	-0.232249	0	-0.43885	0.228188	-7.85841	0.6989649999999999	1.70577	418.129	46.8706	-0.238821	0	-0.877373	0.018619	4.56402	0.511608
7.19	-13.2754	468.534	-42.0034	-0.232816	0	-0.438969	0.219281	-7.73919	0.693807	2.08768	415.575	47.7065	-0.238547	0	-0.877671	0.0220879	4.39682	0.504739
7.2	-12.8485	468.697	-42.4552	-0.233381	0	-0.439044	0.208953	-7.62238	0.690445	2.4579	412.729	48.4727	-0.238294	0	-0.877958	0.0251589	4.22466	0.496163
7.21	-12.335	468.779	-43.025	-0.23394	0	-0.439068	0.197555	-7.5079	0.689082	2.80537	409.59	49.1607	-0.238066	0	-0.87823	0.0277391	4.04996	0.486093
7.22	-11.7535	468.746	-43.7183	-0.234492	0	-0.439041	0.185436	-7.39548	0.68975	3.12537	406.171	49.7647	-0.23787	0	-0.878485	0.0298193	3.87529	0.474806
7.23	-11.121	468.567	-44.5308	-0.235036	0	-0.438965	0.172892	-7.28454	0.692293	3.41958	402.495	50.2796	-0.237717	0	-0.878714	0.0314612	3.70308	0.462588
7.24	-10.4524	468.221	-45.4499	-0.235577	0	-0.438846	0.160154	-7.17418	0.696393	3.69395	398.594	50.7005	-0.237619	0	-0.878915	0.0327656	3.53556	0.449717
7.25	-9.76178	467.693	-46.4581	-0.236119	0	-0.438689	0.147427	-7.06331	0.701631	3.95442	394.499	51.0237	-0.237586	0	-0.87908	0.0338264	3.37458	0.43646
7.26	-9.062860000000001	466.976	-47.5352	-0.236665	0	-0.438502	0.134895	-6.95064	0.707532	4.20417	390.239	51.2463	-0.237625	0	-0.879208	0.0347083	3.22168	0.423073
7.27	-8.36895	466.078	-48.6606	-0.237216	0	-0.438294	0.122726	-6.83477	0.71358	4.44329	385.837	51.3673	-0.237742	0	-0.879296	0.0354475	3.07812	0.409797
7.28	-7.69132	465.024	-49.8133	-0.237777	0	-0.438071	0.111051	-6.71423	0.7192269999999999	4.66935	381.321	51.3877	-0.237939	0	-0.879343	0.0360599	2.94482	0.396851
7.29	-7.03769	463.856	-50.9716	-0.238351	0	-0.437842	0.0999483	-6.58762	0.723892	4.8784	376.731	51.3116	-0.238217	0	-0.879351	0.036549	2.82246	0.384426
